<?xml version="1.0" encoding="utf-8"?>
<!-- Generator: Adobe Illustrator 24.1.2, SVG Export Plug-In . SVG Version: 6.00 Build 0)  -->
<svg version="1.1" id="图层_1" xmlns="http://www.w3.org/2000/svg" xmlns:xlink="http://www.w3.org/1999/xlink" x="0px" y="0px"
	 viewBox="0 0 722 722" style="enable-background:new 0 0 722 722;" xml:space="preserve">
<g transform="translate(0.000000,722.000000) scale(0.100000,-0.100000)">
	<path d="M361,6742c-6-2-9-8-5-13c3-5,1-9-4-9c-6,0-8-9-5-20c3-12-2-27-14-37c-10-10-12-13-4-8c12,9,12,7,2-12c-6-13-9-23-5-23
		c3,0,0-8-7-17c-12-14-12-16,0-8c11,6,12,5,5-6c-14-23-16-51-2-43c7,5,8,3,4-5c-5-7-13-10-20-8c-6,3-12-6-12-19c-1-13,2-24,8-24
		c5,0,6-5,3-10c-4-6-11-7-17-4c-6,4-6-2,1-15c7-12,8-21,2-21c-5,0-7-14-4-31c3-19,1-29-6-25c-5,4-13,2-16-4c-4-6-3-9,2-8
		c4,2,8-1,8-7c0-5-3-9-6-8c-8,3-4-30,6-46c5-10,4-12-3-7c-13,8-14,4-14-76c0-32-4-55-9-53c-4,3-4-9,2-27c5-21,5-36-1-42
		c-13-13-13-29,0-21c17,10,11-7-8-22c-16-14-16-14,3-9c17,5,17,4-4-12c-16-13-20-21-12-26s8-13,1-26c-7-14-6-23,6-34c8-9,11-16,5-16
		s-11-5-11-11c0-5,4-7,10-4c5,3,10,1,10-4c0-6-7-11-17-11c-14,0-14-3,3-22c10-12,13-18,7-14c-9,5-13,0-13-13c0-10,6-22,13-24
		c6-3,3-6-7-6c-20-1-20-1,0-16c11-9,13-13,4-10c-12,4-15-6-15-59c0-56,2-63,18-60c10,1,15-1,12-7c-4-5-13-9-21-9s-14-4-14-10
		c0-5,3-9,7-9c22,4,25-2,8-14c-14-11-15-16-5-22c9-5,11-4,6,3c-4,7-3,12,3,12c5,0,9-9,8-19c0-11-5-17-9-15c-4,3-8,1-8-5
		c0-5,6-11,12-13c15-5,17-90,3-100c-6-5-5-8,3-8c7,0,10-5,7-10c-4-6-1-18,7-27c7-9,8-14,2-10c-7,4-11-5-11-23c0-17,4-30,8-30
		s9-7,12-14c4-11,1-13-11-9c-16,5-16,5,0-12c12-13,14-24,7-42s-5-25,6-29c8-4,12-10,9-15s-10-6-16-3c-7,4-8,2-4-5c4-6,12-8,18-5
		c6,4,9,1,6-7s-1-24,3-36c6-16,5-23-4-23c-8,0-7-3,2-9c8-5,16-17,17-25c1-9-1-14-5-12c-4,3-7-4-8-14c-1-11,2-22,8-25c5-3,6,1,3,9
		c-3,9-2,16,4,16c5,0,9-10,8-22c-1-13,3-26,9-30c6-5,5-8-4-8c-11,0-11-3,0-16c10-13,10-17-2-25s-6-13,12-11c4,1,9-8,12-18
		c3-13,1-18-6-13c-8,4-8,2,0-9c7-8,10-18,6-21c-3-4,0-7,8-7c11,0,11-2,1-9c-11-6-10-11,3-25c9-9,11-16,5-16s-8-5-5-10c4-6,11-7,17-4
		c6,4,5-3-2-16s-8-20-2-16c6,3,13,2,17-4c3-5,0-10-7-10c-10,0-10-2,1-9c8-5,11-16,8-25c-4-9-2-16,4-16s7-4,4-10c-3-5-1-10,5-10
		c7,0,9-7,6-16c-4-10-2-13,6-8c7,5,9,0,6-14c-4-12-2-22,3-22s9-5,9-11c0-5-4-7-10-4c-16,10-11-1,7-16c10-8,14-9,10-2c-4,6-4,14,1,17
		c4,2,8-14,9-37c1-25,8-44,18-49c10-6,14-17,10-28c-3-10,0-22,6-26c8-5,9-3,4,6c-5,8-4,11,3,6c6-4,8-14,5-23c-5-11-3-14,6-8
		c10,6,11,3,1-15c-7-12-8-20-2-16c5,3,13-1,16-10s2-12-5-9c-6,4-13-2-16-14c-3-11-9-18-14-16c-4,3-6-4-4-15s-1-20-6-20
		c-6,0-7-5-3-12c5-7,2-9-9-5s-14,2-10-9c3-8-1-22-8-31c-8-9-9-14-3-10c6,3,11,0,11-7c0-8-7-12-15-8c-10,3-13,1-8-6c4-7,3-12-3-12
		s-7-7-4-17c4-10,2-14-4-10c-7,5-9,0-6-13c4-14,0-20-11-20c-10,0-14-5-11-10c4-6,1-18-7-27c-11-14-11-16,2-8s13,6,2-8
		c-8-9-10-22-6-29c6-10,4-10-9,0c-14,12-16,11-12-7c2-12-1-21-7-21s-5-7,3-17c10-11,10-14,2-9c-12,6-18-11-14-37c0-4-2-6-6-6
		c-20,3-26-2-13-11c11-7,11-10,2-10c-7,0-10-4-7-10c3-5,1-10-6-10c-8,0-8-4,1-15c11-13,10-14-4-9c-12,5-15,2-9-12c4-11,3-15-5-10
		c-7,4-9-2-6-19c2-14-5-43-16-65s-19-48-18-58c2-10-3-16-11-14c-12,3-12,1,0-14c12-16,12-17-1-12c-12,4-16-1-15-21c0-14,4-32,8-38
		c6-9,3-11-8-7c-17,7-17-16,0-28c6-5,3-8-7-8c-9,0-20-5-24-12c-4-6-3-8,3-5c11,7,28-22,18-31c-3-3-5,0-5,7s-4,10-9,7c-5-4-8-24-7-46
		c2-22-1-40-6-40s-6-5-3-10c4-6,2-17-5-25c-9-10-7-16,7-24c12-7,13-10,4-11c-7,0-11-6-8-15c4-8,1-17-5-21c-7-5-8-2-3,7c5,8,4,10,0,6
		c-12-10-16-39-5-32c5,3,7-5,4-17c-3-13-6-27-7-33c-2-5-7-16-11-24c-6-9-5-12,2-7c11,7,11-31-1-51c-3-5-3-13,1-17c10-11,9-30-3-38
		c-7-5-6-8,1-8c12,0,13-38,1-56c-3-6-3-14,0-18c12-12,14-48,2-40c-8,5-8,1,0-14c6-12,11-25,10-29s0-10,1-13c7-19,7-39-1-34
		c-5,3-9,0-9-5c0-6,4-11,9-11c6,0,6-12,1-31c-8-25-7-29,5-19c10,8,15,8,21-1c5-8,3-9-6-4c-10,6-12,4-7-9c4-9,3-15-1-12
		c-11,7-8-31,3-41c4-5,5-1,0,7s-4,12,0,7c5-4,8-28,8-52c-1-32,2-43,10-39c9,5,9,3,0-6c-9-10-9-16,2-27c8-7,11-21,8-30
		c-5-12-3-14,8-8c12,8,12,6,1-8c-12-14-12-19,2-32c18-18,21-29,6-20c-5,3-10-1-10-9s4-17,9-21c6-3,8-14,6-25s1-20,6-20c6,0,7-4,4-10
		c-3-5-2-10,4-10c5,0,8-9,6-20s0-20,5-20c4,0,6-9,3-20c-5-18,5-25,30-21c5,1,6-3,2-9c-3-6-10-8-15-5c-11,7-7-22,5-32c4-4,5-2,0,6
		c-5,9-4,12,3,7c6-3,8-19,6-33c-3-15-2-24,2-20c12,12,34-26,22-40c-7-9-7-13,1-13c6,0,11-9,11-21c0-13,4-18,13-13c8,5,8,3-2-9
		c-11-14-11-18,2-23c9-3,13-12,10-20s1-14,10-14c10,0,15-7,12-20c-2-11,1-20,6-20c6,0,8-4,4-9c-3-6,1-13,8-18c18-11,31-46,14-38
		c-6,4-4,0,5-8c14-11,15-16,5-26c-9-10-8-11,7-5c13,5,17,4,12-4c-4-7-3-12,2-12s12-14,16-31c3-17,10-28,15-25s8-2,7-12
		c0-9,4-16,11-15c8,2,10-4,6-14c-5-11-3-14,6-8c10,6,11,2,6-15s-4-21,6-15c9,6,11,3,6-8c-4-11,1-22,13-29c13-9,16-16,9-24
		c-8-9-5-11,12-7c15,4,20,2,15-5c-3-6-1-14,5-18c6-3,17-22,25-40c8-19,19-34,26-34c6,0,9-3,5-6c-3-3,4-16,16-28c13-11,18-18,13-14
		c-22,17-27,7-6-12c13-11,27-20,31-20c8,0,24-40,21-52c-1-4,5-5,14-1c11,4,15,1,12-13c-2-11,6-23,22-31c14-7,21-13,15-13
		c-5,0-2-5,8-11c9-5,17-17,17-24c0-8,7-15,16-15c11,0,14-5,10-17c-4-10-4-14,0-11c8,8,34-14,27-24c-2-5,1-8,7-8c15,0,34-20,43-43
		c4-10,11-15,17-12c5,3,10-1,10-9c0-9,7-16,16-16c8,0,12-4,9-10c-3-5-1-10,5-10s8-5,4-12c-5-9-2-8,9,1c15,12,17,12,11-3
		c-5-12,0-19,15-23c11-3,21-10,21-15s-5-6-12-2s-8,3-4-4c4-6,13-9,21-5c10,3,15-1,15-12c0-9,4-13,10-10c5,3,10-2,10-12
		c0-15,2-16,10-3s10,12,10-2c0-10,5-18,11-18c5,0,7-5,4-10c-4-6-2-9,4-8c5,2,17-6,26-17s14-13,10-5c-4,10-2,9,8-2c8-10,20-18,28-18
		c11,0,11-2-1-10s-10-10,9-10c13,0,22-3,18-6c-12-12,17-33,31-22c9,8,12,5,12-11c0-14,6-21,20-21c11,0,20-7,20-15s9-15,19-15
		c11,0,28-11,39-25s25-25,31-25s11-4,11-9c0-6,9-8,19-6c14,3,18-1,14-11c-3-8,1-14,11-14c9,0,16-5,16-11c0-5,4-8,9-4c6,3,21-6,34-20
		s33-27,45-28c11,0,18-5,15-11c-4-5,1-7,10-3c11,4,14,2,10-9c-4-10,3-14,25-14c17,0,34-5,38-12c5-7,3-8-7-3c-12,8-12,6,0-8
		c10-13,17-15,27-6c8,6,15,9,15,5c1-3,2-9,3-13c3-20,18-32,31-26c8,3,15,0,15-6s7-8,17-4c12,5,15,2,11-8c-4-11,2-15,21-17
		c14-1,31-8,36-15c6-8,15-12,20-10c6,2,21-6,33-18c13-11,29-18,37-16c7,3,16-1,19-9s15-14,26-14c12,0,18-4,15-10c-4-6-3-10,2-9
		c26,4,44-2,37-13c-5-8,0-7,11,2c10,8,16,10,12,4c-3-6,10-18,31-28c34-15,35-15,17,0s-18,16-2,10c10-3,21-6,23-6s4-7,4-15
		c0-18,26-20,33-2c3,7,6,4,6-7c1-13,6-17,22-13c17,5,18,3,7-10c-12-15-11-15,11-4c13,7,21,9,17,3c-3-5,1-13,10-16c8-3,13-2,10,2
		c-3,5,1,9,9,9s12-4,9-9c-3-4,2-8,10-8c9,0,16-5,16-11c0-8,6-7,17,2c11,10,14,10,9,2c-4-8-1-13,8-13s16-6,16-12c0-10,3-9,9,1
		c5,8,10,9,12,2c2-5,19-11,37-13c21-1,32-7,32-18c0-13,1-13,10,0c7,11,10,11,10,2c0-7,5-10,10-7c6,3,10,0,10-7c0-9,3-9,10,2
		c6,10,10,11,10,3c0-7,12-13,26-13c16,0,23-4,18-12c-4-6-3-8,4-4c6,3,13,2,16-3s15-7,26-4c13,3,20,0,20-8c0-11,2-11,10,1
		c6,9,13,11,18,5c4-5,13-10,20-11c39-3,43-5,36-16c-6-10-5-10,7-1c12,10,20,9,36-2c11-8,23-12,26-8c4,3,14,0,24-8c9-8,14-9,10-2
		c-4,6-2,15,4,19c8,4,9,3,5-4s-3-12,3-12s9-6,7-12c-1-7-1-10,1-5c3,4,9,5,14,2c5-4,7,0,6,7c-2,7-2,10,0,6c3-5,13-8,24-8
		c10,0,19-4,19-8c0-5,12-8,28-7c15,1,33-2,40-8c8-6,12-5,13,4c0,8,4,5,9-6l9-20l1,20l1,20l9-20c6-13,9-15,9-5c1,11,3,12,9,3
		c4-7,34-14,67-15c33-2,63-7,67-13c5-6,11-6,19,2c10,10,15,9,26-5c9-10,12-11,7-2c-7,13-5,13,9,1c15-12,17-11,17,4c0,10,3,15,8,11
		c4-4,7-13,7-19c0-15,27-16,37-2c5,6,8,4,8-5c0-13,1-13,10,0c6,10,10,11,10,3c0-7,7-13,16-13s12,5,8,13c-6,9-4,9,7,1
		c8-6,46-10,84-10c39,1,76-3,84-9c9-6,13-6,9,0c-7,12,292,12,312,0c7-5,11-4,8,1c-4,5,18,9,47,9s51-3,49-7c-2-3,8-4,23,0
		c16,4,53,7,83,7c30-1,58,4,62,10c5,6,8,6,8-2c0-7,5-13,11-13c5,0,7,6,3,13c-6,9-5,9,7,0c10-8,19-9,29-1c12,8,12,9-3,4
		c-10-3-15-2-12,4c3,5,20,7,37,5c18-2,39,1,47,8c12,9,13,9,7,0c-4-7-3-13,3-13c5,0,13,5,17,11c4,8,9,7,15-2c6-10,9-10,9-2
		c0,6,9,10,20,8s22,1,26,6c4,6,11,6,20-2c10-8,17-7,29,5c9,9,21,16,28,16c6,0,2-7-9-16c-18-15-18-15,2-5c12,6,25,7,29,3c5-4,6,0,3,9
		c-4,9-1,16,8,16c8,0,14-7,14-16c0-14,2-14,9-1c6,8,7,18,4,24c-4,5-1,6,8,0c21-13,39-14,39-2c0,7,5,6,14-1c11-9,17-8,28,2
		c7,7,19,12,27,9c9-3,11,0,6,8c-6,9-3,9,15,0c20-11,22-10,17,4c-6,14-3,15,13,6c15-8,20-8,20,1c0,8,5,7,17-2c10-8,14-9,10-2
		c-4,6-3,14,3,18c5,3,10,1,10-6c0-6,9-1,21,12c11,13,18,19,14,12c-8-16,45-12,63,5c15,13,36,7,27-9c-10-15,2-10,16,8
		c12,14,12,16,0,8c-9-5-12-4-8,2s16,13,27,16c18,5,19,3,8-10c-11-14-11-15,8-5c12,6,25,8,29,4c5-4,5-2,1,5c-4,8,3,14,21,18
		c15,4,38,10,49,15c14,5,26,4,34-3c10-9,11-9,6,1c-4,7-1,12,8,12s16,5,16,11c0,8,5,7,15-1c13-11,14-10,10,2c-4,10,3,14,27,14
		c20,0,32,5,31,12c-2,6,4,9,12,6c8-4,15-1,15,4c0,6,16,9,37,7c24-2,32,0,22,6c-11,7-11,9,4,9c10,0,16,4,13,8c-3,5,8,8,24,7
		c18-1,30,3,30,11c0,6,7,15,16,18c26,10,29,7,8-10c-18-14-18-15,4-4c12,6,22,16,22,22c0,7,4,7,14-1c10-9,16-8,26,4s10,15,0,15
		c-8,0-10,3-7,6c4,4,14,1,22-6c9-7,15-9,14-4c-4,21,2,24,24,13c20-11,21-11,8,5c-12,14-12,16,3,10c10-4,18,0,22,11c5,13,9,14,15,3
		c5-7,9-8,9-2s20,19,44,29c25,10,43,22,41,26c-3,4,2,9,10,12c10,4,12,1,8-11c-3-10,1-8,12,6c13,17,20,20,30,12s13-6,11,7
		c0,11,6,18,17,18c10,0,25,9,33,19c8,11,14,16,14,10c0-5,5-2,10,6c6,10,10,11,10,3c0-7,5-13,11-13c5,0,7,5,4,10c-3,6-1,10,5,10
		s9,4,6,8c-3,5,1,9,9,10s22,3,30,4s12,5,9,10c-5,7,12,12,19,6c4-5,35,27,32,32c-2,3,4,11,12,19c13,12,14,11,8-9l-7-22l21,21
		c13,13,19,27,14,34c-4,7,0,7,10-2c12-9,17-10,17-2c0,7,5,9,11,6c6-4,9,0,7,10s4,20,12,22c13,4,13,3,0-6c-19-13,0-14,20-1
		c8,5,11,10,5,10c-5,0,1,7,13,16c12,8,27,12,32,9c6-4,9-2,8,5c-2,6,11,18,27,28c17,9,32,20,33,25c2,4,8,5,13,2c5-4,6,1,3,9
		c-4,12,0,16,16,16c11,0,18,5,15,10c-3,6,1,10,9,10c9,0,16,5,16,11s7,9,15,5c8-3,14-2,14,2c-1,4-1,16,0,27c1,17,3,18,11,5
		c9-13,14-7,11,13c0,4,6,7,14,7s15,7,15,16c0,14,3,14,15,4c8-7,16-10,16-6c1,3,3,11,4,16c1,6,3,15,4,21c0,5,6,7,13,3c8-5,9-2,4,11
		c-6,16-4,16,11,4c9-8,14-9,11-4c-6,10,16,37,25,29c2-2,10,2,17,11c11,13,10,14-6,9c-18-6-18-6,1,9c11,8,23,13,27,11c3-2,9,5,13,16
		c3,11,11,20,16,20c6,0,7,4,4,10c-4,6,1,7,11,3c12-4,15-3,10,5c-4,7-2,12,6,12c7,0,22,13,33,29c10,16,24,27,30,23c5-3,4,2-4,11
		c-12,15-12,17,1,12c8-3,23,4,34,17c18,22,18,22,0,8s-18-14-6,7c8,12,16,20,20,18c7-4,30,22,24,28c-2,2,3,10,13,18c14,12,16,12,8,0
		c-5-9-4-12,3-7c6,4,8,14,5,23c-4,10-2,14,4,10c7-4,17,6,24,22s16,28,19,27s15,8,27,21c21,21,19,32-3,15c-5-4,1,3,14,16
		c12,13,19,28,16,34c-4,6-3,8,3,5c6-4,17,1,24,10c10,11,10,14,2,9c-9-5-11-2-7,8c3,9,12,12,21,9c13-5,15-2,11,15c-4,16-2,22,10,22
		c8,0,12,3,9,7c-4,3,1,12,11,20c9,8,11,11,4,8c-11-6-11-3-1,13c7,12,17,18,23,15c5-4,7,1,3,10c-3,10-2,17,4,17s8,4,5,8
		c-3,5,4,16,15,25c11,10,17,22,14,27c-3,6,2,10,12,10c14,0,15,2,5,9c-11,7-10,9,3,15c9,3,13,11,10,17c-4,6,6,24,21,41
		c16,17,24,28,18,25s-11,0-11,8s3,14,6,13c18-2,31,3,31,13c0,5-4,8-9,5c-5-4-7,3-4,15c4,13,11,18,21,14c11-4,12-2,4,7
		c-7,9-6,17,4,26c10,10,14,10,14,1c0-7,3-10,6-7c3,4,1,16-6,27c-9,18-8,21,7,22c11,0,13,3,6,6c-7,2-13,9-13,14c0,4,7,5,17,2
		c11-4,14-3,9,6c-4,6-2,19,6,28c11,14,11,15,0,9c-11-7-11-4-1,12c7,12,18,18,24,14c5-3,4,2-4,11c-11,14-11,18,1,22c9,4,14,16,12,31
		c-2,18,2,24,11,20c11-4,12,0,5,19c-7,20-6,23,6,18c12-4,14,0,8,22s-4,26,7,20c11-7,11-5-1,10s-12,17-1,10c11-6,13-4,8,9
		c-6,14-3,17,9,12c13-5,14-4,6,7c-9,10-8,17,0,25c7,7,9,12,5,12s-3,10,4,21c9,17,8,20-2,14c-9-6-11-3-6,9c4,10,7,22,7,27s4,9,10,9
		c5,0,7-8,3-17c-3-10-3-15,1-12c14,13,17,59,4,59c-10,0-10,2-1,8c6,4,10,22,9,40c-1,21,2,31,9,28c8-3,11,12,11,45c-1,27,2,49,7,49
		c4,0,7,5,7,11c0,5-5,7-11,3c-7-4-6,3,2,17c17,31,20,51,7,43c-6-4-5,2,1,15c8,14,8,21,1,21c-8,0-8,6,0,20s8,20,0,20c-6,0-8,5-5,10
		c4,6,10,8,14,6c9-6,5,53-5,62c-4,4-4-2,0-13c6-17,5-18-6-7s-10,16,6,28c14,10,16,14,5,14c-12,0-12,2,1,10c13,9,13,10,0,10
		c-9,0-11,3-4,8c14,9,27,45,14,37c-6-3-10-1-10,5s-5,8-12,4s-8-3-4,5c4,6,12,9,17,6c14-9,11,8-8,34c-9,14-11,21-5,17c8-5,12,1,12,18
		c0,13-6,27-12,29c-10,4-10,6,0,6c6,1,12,8,12,16s-6,15-12,15c-9,0-9,3-3,8c9,6,12,26,5,35s-4,57,5,57c6,0,6,3-1,8c-6,4-11,29-11,55
		c-1,30-7,55-16,64c-11,12-13,22-7,39c5,13,6,23,2,23c-19-3-25,2-12,11c10,6,11,10,3,10c-7,0-13,5-13,11c0,5,6,7,13,3c8-5,8-3-2,9
		c-7,9-16,15-20,13c-4-3-7,4-8,14c-1,11,3,22,8,25c5,4,7,11,3,16c-3,5-9,7-13,4c-5-2-6,7-3,22c4,20,2,24-9,18c-11-7-11-5,1,10
		c9,11,10,16,3,11c-13-7-17,3-14,37c1,9-3,17-10,17c-6,0-9,8-6,20c4,14,0,20-11,20c-15,0-15,2-2,10c11,7,11,10,2,10c-7,0-10,5-7,10
		c3,6,0,10-7,10c-9,0-9,3,2,10c12,7,12,10,1,10c-7,0-11,6-8,15c4,8,1,17-5,21c-7,4-8,3-4-4c5-8,1-10-10-5c-11,4-13,8-6,11
		c7,2,12,10,12,18c0,9-4,13-9,10c-4-3-7,6-5,19c1,14-3,28-8,32c-7,4-8,1-3-7c5-9,4-11-4-6c-9,6-9,11-1,21c7,9,6,16-5,25
		c-13,11-13,15-3,21c9,6,5,9-12,9c-20,0-22,2-10,10c12,7,12,10,1,10c-7,0-11,6-7,15c3,8,1,15-4,15c-6,0-10,11-10,24c0,14-5,28-12,32
		c-7,5-8,3-3-6c6-9,4-11-4-6c-7,5-10,14-7,22c3,7,1,16-4,19c-6,4-10,15-10,26c0,14-4,18-12,13c-10-6-10-4,0,8c10,13,10,19-3,31
		c-8,9-12,24-9,34c5,15,4,15-5,3c-7-10-11-11-11-2c0,6,1,13,2,15c1,1-4,13-11,26c-11,19-11,22,0,16c9-6,11-3,6,8c-6,16,3,22,26,18
		c5-1,6,3,2,9c-3,6-11,7-17,4c-7-4-8-2-4,4c4,7,15,12,24,12c15,0,15,2,2,10c-12,8-13,11-1,19c11,7,11,9,0,14c-10,4-8,6,4,6
		c10,1,16,5,12,10c-3,5-1,13,5,16c6,4,8,15,5,26c-5,14-2,19,12,19c15,0,16,2,3,10c-10,6-11,10-2,10c6,0,12,12,12,26c0,17,4,23,13,18
		c7-5,6,0-3,11c-11,14-12,17-1,11c9-6,12-5,9,5c-3,8,2,20,11,27c12,10,13,12,1,6c-13-7-13-6-1,10c8,10,15,32,15,49c1,22,5,31,15,29
		c12-3,12-1,0,14c-12,16-12,17,4,11c15-6,16-4,6,14c-6,12-7,24-3,28c10,7,13,19,16,57c1,13,7,23,13,20c8-3,9,9,5,40c-4,24-3,41,1,38
		c4-2,10,0,14,6c3,5,2,10-4,10s-8,7-4,16c5,13,7,13,14,2c5-7,9-8,9-3c0,6-5,16-12,23c-9,9-9,12,3,12c8,0,14,10,14,24c0,13-4,22-9,19
		c-5-4-5,0,0,8s10,25,10,39c1,14,2,31,3,38c1,8,6,10,14,6c8-5,8-2-2,9c-9,11-10,17-2,17c6,0,11,5,11,11c0,5-6,7-12,3c-9-5-9-2,1,9
		c13,16,9,21-14,18c-5-1,1,8,14,19s18,20,12,20s-8,7-5,15c4,8,10,12,16,9c5-3,4,3-3,14c-10,16-10,24-1,34c9,11,9,17,0,26s-9,12,3,12
		s12,2-1,11c-10,7-11,12-3,15c6,3,9,18,6,36c-3,19-1,28,6,24c5-4,13-1,17,5c5,8,3,9-6,4s-11-1-6,16c3,13,3,18,0,12c-3-7-10-13-15-13
		c-6,0-5,8,1,20c6,11,16,18,21,14c6-3,5,3-2,14c-7,12-17,18-21,16c-4-3-8,0-8,5c0,6,6,11,14,11s18,5,22,12c4,6,3,8-3,5
		c-6-4-13,0-17,8c-3,10,1,15,12,16c13,0,11,3-5,9c-13,5-23,12-23,14c0,3,7,3,15,0c11-5,13-2,9,10c-3,9-11,13-18,10c-6-3-2,2,8,10
		c20,16,20,16,0,17c-17,0-16,1,4,9c12,5,22,12,22,15c0,4-4,4-9,1s-11,1-15,9c-3,10,1,15,12,16c13,0,11,3-5,9c-13,5-23,12-23,14
		c0,3,6,3,14,0s17,0,22,7c5,8,3,10-6,4c-10-6-12-3-8,13c4,12,1,25-4,29c-7,4-8,1-3-7s4-11-3-6c-6,4-9,13-5,22c4,12,8,12,22,2
		c14-12,15-11,2,5s-13,20,0,28c11,8,9,9-6,5c-16-5-21-1-22,14c-1,11,3,20,8,20c6,0,7-5,3-12c-5-7-3-8,5-4c9,6,9,12-3,25
		c-15,16-15,48,0,73c4,6,3,9-2,6c-5-4-10,21-11,53c-2,38,1,58,7,54c16-10,11,1-7,16c-14,12-16,12-8,0c5-10,4-12-4-7c-9,6-9,11-1,21
		c8,9,6,14-6,19c-13,5-14,10-6,18c6,6,8,18,3,27c-4,9-7,32-6,51s-3,38-8,41c-5,4-5,15,2,27c8,15,8,23-1,28c-7,5-8,3-3-7
		c8-12,6-12-8,0c-18,15-23,26-7,16c6-3,10-1,10,4c0,6-6,11-12,11c-9,0-8,4,2,10c8,5,10,10,4,10c-5,0-11,21-13,47c-2,52-8,66-22,58
		c-5-4-5,5,1,20c7,19,7,24-2,19c-8-5-9-2-5,9c3,10,2,17-3,17c-11,0-9,22,3,31c4,3,0,12-9,20c-16,12-17,12-9-1s7-13-8-1
		c-21,17-55,20-79,9c-12-6-18-5-18,4c0,10-2,10-8,1c-5-8-13-9-22-3c-8,5-22,4-33-2c-15-7-22-7-28,3s-9,11-9,2c0-15-21-13-32,2
		c-5,6-8,6-8-1s-18-11-45-10c-34,1-45-3-46-14c0-9-2-10-5-3s-12,9-21,6c-11-4-14-2-9,5c5,8,2,10-9,6c-14-6-14-8,2-20s14-12-14-4
		c-24,6-33,5-33-3c0-7-4-6-10,3c-5,8-10,10-10,4s-15-9-35-8c-19,2-35-1-35-6c0-6-5-10-11-10c-5,0-7,4-4,10c3,5,0,7-9,4s-12-13-9-22
		c4-13,2-12-11,3c-12,14-16,15-13,4c4-12-4-15-44-15c-30,1-51-4-54-12c-5-14-26-12-37,3c-5,6-8,3-8-7c0-12-6-16-22-13
		c-12,3-30-3-41-13c-10-9-34-17-54-17c-19-1-39-8-44-16c-6-10-9-11-9-1s-5,10-22,1c-13-7-26-17-30-23c-5-7-8-6-8,4c0,9-3,11-8,5
		c-4-5-17-15-29-22c-17-10-23-10-26,0c-3,7-6,3-6-7c-1-11-4-16-8-13c-3,4-13,1-21-6c-13-10-14-9-7,2c5,8-6,5-23-8
		c-18-12-36-19-42-16c-5,3-10-2-10-12c0-14-2-15-9-4c-6,9-10,10-12,2c-3-7-13-14-24-15c-11-2-19-9-17-15c2-9-4-9-20,0
		c-21,11-22,11-9-5c8-9,10-16,5-15s-22,1-38,0c-22-1-26-4-17-14c8-11,6-13-12-12c-12,1-28-6-34-16c-8-10-23-16-38-15
		c-13,2-22,0-20-4c3-4-3-14-12-21c-11-10-14-10-9-2c5,9,2,11-9,7c-9-4-14-13-10-22c5-13,3-13-12-1s-16,12-11-3c5-11,2-15-10-14
		c-9,2-22-2-29-8c-33-29-41-34-47-29c-3,4-6,1-6-6s-5-9-12-5c-8,5-9,2-4-11c5-15,4-16-9-5c-12,10-15,9-15-5c0-15-2-16-17-4
		s-16,12-10-3c6-17-3-23-26-19c-5,1-11-8-14-19c-5-17-8-18-21-8c-13,11-14,11-8,0c5-9,1-15-13-19c-11-3-18-10-14-16s0-8-11-4
		c-10,4-15,3-11-3c6-9-8-14-28-11c-5,1-6-3-2-9c5-9-7-14-27-11c-4,0-5-8-3-18c2-14-2-17-21-15c-13,1-22-1-20-4c4-7-19-33-29-32
		c-3,0-5-3-4-7c1-7-41-27-52-25c-4,1-6-6-5-15c0-9-5-18-13-21c-9-3-11,0-6,8c5,9,4,11-3,6c-7-4-12-13-12-21s-5-17-12-21
		c-7-5-8-2-3,7c4,8-12-6-35-31c-24-25-40-39-35-31c5,10,4,12-3,7c-7-4-12-14-12-22s-9-14-21-14c-11,0-18-4-15-8c3-5-1-9-9-9
		s-12,4-9,8c2,4-6,8-18,8c-13,0-33,1-45,1c-13,0-23,5-23,11c0,5,5,7,10,4c6-3,10-1,10,5s-10,8-25,4c-14-3-31-1-39,5c-11,9-15,9-19-1
		c-4-11-7-11-15,0c-4,7-22,12-39,10c-17-1-37,3-45,8c-7,6-26,11-41,12s-36,6-46,12c-10,5-21,7-23,4c-10-10-48-13-43-3c4,5,10,7,15,4
		s11-1,14,4c4,5-7,7-24,5c-20-4-30-1-30,8c0,8-3,9-8,3c-9-13-42-16-42-4c0,6-10,5-21-2c-12-6-19-7-15-1c3,5-1,13-10,16
		c-8,3-13,2-10-2c2-4-5-8-17-9c-12,0-16,1-9,4c6,3,12,8,12,11c0,10-83,8-99-2c-10-6-12-6-7,2c7,11-33,17-99,14c-11-1-27,2-35,5
		c-26,10-40,12-35,3c3-5,0-12-6-16c-7-4-9-3-6,2c3,6,2,16-4,24c-7,12-9,11-9-5s-2-17-9-6c-13,20-71,20-72,1c-1-8-5-4-9,10
		c-6,20-8,21-9,6c-1-16-4-17-13-8c-7,7-17,12-23,12c-5,0-3-5,5-10s10-10,4-10s-17,6-23,14c-12,15-28,16-48,3c-8-5-13-3-13,3
		s-4,8-10,5c-18-11-50-14-50-4c0,6-8,6-20-1c-11-6-20-7-20-2c0,7-70,9-77,2c-2-1-6-3-10-4c-5-1-14-5-20-9c-9-5-11-3-7,6
		c3,8-1,14-10,14c-8,0-13-4-11-8c3-4-2-9-10-12c-9-4-12-1-9,7c3,7-2,13-10,13s-13-4-10-9c3-4-2-8-11-8c-10,0-14,5-9,13
		c6,10,4,10-7,0c-7-7-17-13-22-13c-4,0-5,6-1,13c6,9,4,9-8-1c-9-7-34-11-61-9c-26,3-48,0-49-4c-2-5-14-11-26-14c-19-3-23-1-17,12
		c5,15,4,15-12,2c-20-17-31-18-52-5c-10,6-12,5-7-2c10-16-7-15-23,1c-9,7-11,8-7,1c4-8-5-12-28-12c-19,0-39-3-45-6c-5-4-13-1-16,4
		c-5,7-12,5-21-7c-11-14-13-15-14-3c0,13-1,13-10,0s-10-13-10,0s-2,13-9,0c-6-8-7-18-4-24c3-5,1-6-5-2s-9,12-6,19c3,8-4,13-18,14
		c-13,0-17-1-10-4c23-9,12-19-20-18c-18,1-36-4-40-9c-5-7-8-7-8,1c0,9-7,10-24,3c-16-6-27-5-35,3c-9,9-13,6-18-11c-5-21-6-21-20-5
		c-8,10-12,13-9,8c2-6-4-16-14-23c-17-10-18-9-13,6c5,14,3,15-8,5c-7-7-25-13-40-13s-31-4-34-10c-3-5-12-10-18-10c-7,0-6,4,3,10
		c12,7,10,9-8,7c-12-1-21-6-18-13s-6-11-25-9c-16,1-32-1-34-6c-3-4-12-6-20-2c-9,3-15-1-15-8c0-11-3-11-10,1c-7,11-10,11-10,2
		s-5-10-18-3c-14,7-19,6-19-4c0-8,5-11,10-8c6,3,7,1,3-6c-6-9-11-9-22,0c-10,8-14,8-14,0c0-6-5-11-11-11c-5,0-8,4-4,9c3,6-6,6-23,1
		c-30-8-55,0-50,16c2,5-1,11-7,12c-32,12-46,25-41,39c6,14,4,14-11,2c-9-8-14-9-11-4c7,12-17,37-26,28c-3-4-6,2-6,13c0,16-2,17-10,4
		c-9-13-10-13-10,0c0,9-9,23-20,33c-11,9-20,14-20,11c0-4-7-1-15,6s-12,17-9,22c4,6-4,4-17-3c-21-11-22-10-12,3c11,12,8,17-15,29
		c-15,8-37,24-50,37c-21,20-35,26-54,23c-5,0-8,7-8,17c0,27-10,33-33,21c-14-8-18-8-13,0c4,6,2,11-4,11s-8,5-4,12c4,6,3,8-4,4
		c-6-3-15,1-20,10s-12,15-15,15c-20-3-28,0-23,8c3,5-1,12-10,15c-10,4-13,2-9-7c4-6-2-2-13,11c-14,15-22,18-25,10c-3-7-6-2-6,12
		c-1,20-3,22-11,10c-5-8-10-10-10-5c0,6-9,16-21,23c-15,10-19,10-14,1c6-8,4-10-4-5c-7,5-10,14-7,22s0,11-10,7c-7-3-14,0-14,6
		s-7,8-15,5c-8-4-15-1-15,6c0,6-4,8-10,5c-5-3-10,1-10,9c0,9-5,16-11,16c-5,0-7-4-4-10c11-18-4-10-30,15c-14,14-25,21-25,14
		s-8-2-19,9c-10,12-28,22-40,22c-15,0-20,4-15,13c5,7,0,6-11-3s-16-10-11-2c4,7,2,12-4,12s-9,4-6,9s0,9-7,8c-42-1-59,4-54,17
		c4,10,0,12-14,9c-11-3-19,0-19,7c0,9-4,9-17-1c-15-12-16-12-10,3c4,13,2,15-10,11c-9-4-14-2-10,3c3,6-10,11-30,12
		c-22,2-44,11-55,24c-12,14-18,17-18,7c0-9-3-10-8-3c-4,6-15,10-25,8c-10-1-21,4-24,12s-9,11-14,8s-9,1-9,8c0,9-3,9-10-2
		c-6-9-10-10-10-3c0,6-9,10-20,8c-12-2-20,2-20,10s-5,17-12,21s-8,3-4-4s3-12-3-12c-5,0-13,5-17,11c-4,8-9,7-15-2c-6-10-9-11-9-1
		c0,6-11,12-25,12s-25,5-25,10c0,6-5,10-11,10c-5,0-7-6-4-12c4-7,0-5-8,5c-16,20-32,23-20,5c4-7-5-5-20,5c-15,9-27,13-27,7
		c0-5-5-10-11-10c-5,0-7,6-3,13c5,7,0,6-11-3c-15-12-17-12-10-1c6,11,4,13-8,8c-9-3-23,1-32,9c-8,9-15,13-15,9c0-3-10,0-22,6
		c-21,11-22,11-9-4c17-21,8-22-13-1c-12,12-16,12-16,2c-1-8-6-6-15,6c-15,20-15,20-15,0c-1-18-1-18-14-1s-32,24-22,8c3-5-1-11-8-14
		c-10-4-14,0-11,11c2,12-3,18-15,18s-16-6-12-16c3-9-6-5-22,10c-23,21-26,22-20,5c6-16,5-18-7-10c-8,6-31,10-51,10c-21-1-38,4-38,10
		s-3,7-8,0c-10-14-32-17-32-4c0,8-4,8-13,0c-10-8-17-7-25,1c-9,9-12,9-12-1c0-11-3-11-15-1c-11,9-15,9-15,1c0-7-5-9-11-6
		C426,6743,378,6748,361,6742z M6428,6095c-4-20-2-23,8-15c10,9,12,4,10-23c-2-19-7-40-11-47c-5-9-4-11,4-6c8,6,11-2,8-28
		c-3-20-1-39,3-41c4-3,4-22,0-44c-4-21-3-46,2-55s5-16,1-16s-8-43-7-95c1-61-3-92-9-88c-6,3-7,1-3-5c4-7,9-21,11-33c3-16,0-19-12-15
		c-13,6-14,4-2-10c15-18,19-53,7-60c-4-3-6-9-3-14s1-11-4-15c-6-3-8,4-6,16s1,19-2,15c-12-12-12-40-1-47c9-5,9-11,1-21
		c-6-7-10-28-8-46c1-18-1-35-6-37c-4-3-5-13-2-22c4-11,3-14-5-9c-13,8-15-2-12-46c1-14-4-29-9-33c-8-4-8-12-1-25c7-14,5-22-13-34
		c-20-16-20-17-2-12c19,6,19,5,1-8c-10-8-16-19-13-24c4-4,0-20-8-35s-10-27-4-27c5,0,9-4,9-10c0-5-6-7-14-4s-17,0-22-7
		c-4-7-3-10,4-5c7,4,10-1,9-14c-1-11-6-20-11-20s-6-3-3-7c4-3,1-13-6-21c-9-13-9-14,1-8c6,4,12,3,12-2c0-6-8-13-17-16
		c-15-6-15-8-3-16c13-8,12-10-2-10c-10,0-17-3-16-7c4-20-15-62-26-56c-6,3-6,1,2-8c14-16,16-33,2-24c-6,4-10-5-10-19s-5-26-11-26
		c-8,0-7-5,1-15c11-13,10-14-5-9c-14,6-16,3-11-14c4-12,2-23-5-28c-8-5-9-3-4,6s4,11-4,6c-9-6-9-11-1-21c7-9,6-16-5-25
		c-8-7-15-21-15-31s-5-21-12-25c-7-5-8-3-3,6s4,11-3,6c-16-10-16-39,1-30c6,4,4-2-6-13c-9-11-14-22-11-25s0-9-7-14c-8-5-10-3-4,6
		s4,11-4,5c-7-4-11-16-8-26c3-11,1-19-5-19s-7-8-4-17c5-15,3-14-10,2c-14,17-16,18-10,2c6-18-17-87-29-87c-3,0-3,6,1,13c4,6,3,8-2,4
		c-14-13-12-57,2-57c8,0,11-6,7-17s-3-14,5-9s10,2,6-8c-3-9-1-16,6-16c6,0,8-5,5-10c-3-6,1-13,10-16c13-6,14-8,3-15c-10-7-9-9,4-9
		c12,0,16-6,13-21c-3-17-1-19,10-9c11,9,12,7,8-11c-5-17-3-20,7-14s12,3,8-13c-4-12-1-25,4-29c7-3,8-1,4,5c-4,7-2,12,3,12
		c6,0,11-9,11-20s5-20,11-20c5,0,7-4,4-10c-3-5-1-10,5-10c7,0,9-7,6-16c-3-8-2-12,4-9s10-1,10-10s5-13,10-10c6,3,10-3,10-14
		c0-12,5-21,10-21c6,0,10-9,10-20c0-12,7-20,18-21c11,0,12-2,4-6c-9-4-7-10,8-23c12-10,22-22,23-27c1-4,5-7,9-6c4,2,4-5,1-14
		c-4-11-3-14,5-9s12-2,12-21c0-16,5-34,12-41c9-9,8-12-4-12c-9,0-15-8-14-17c0-10-5-17-12-15c-10,2-10-2-2-18c9-16,8-19-7-13
		c-13,5-15,3-10-11c6-15,3-17-15-13c-20,5-21,4-6-6c16-11,14-13-15-30c-17-10-24-16-14-13c17,5,17,5,0-18c-10-13-21-22-24-20
		c-4,2-12-10-19-26s-16-27-21-24s-9-4-9-15c0-14-5-19-15-14c-9,3-15,2-14-3c4-21-2-35-11-29c-5,3-10,1-10-5s-4-8-10-5s-7-1-4-9
		c4-11,0-16-10-16c-9,0-15-3-15-7c4-22-2-37-9-26c-5,8-12,7-27-4c-17-13-17-15-2-9c11,3,16,2,12-4c-3-6-13-10-21-10s-13-6-12-12
		c2-7-3-12-9-10c-7,1-13-3-13-9c0-5-4-7-10-4c-5,3-10-1-10-9c0-14-11-20-32-17c-4,0-4-7-1-16c4-10,2-14-5-9c-6,3-13,2-17-4
		s-12-7-18-3c-7,4-6-1,2-10c12-15,12-17-4-11c-12,5-16,4-12-3c4-6-1-10-10-9c-10,0-18-5-19-11c-3-26-5-28-14-13c-8,13-10,13-10-2
		c0-11-6-16-19-13c-15,3-18-1-14-12s2-14-5-9c-7,4-12,2-12-4c0-7-6-10-14-7s-22-5-32-18c-13-17-20-21-26-12c-5,8-8,6-8-7
		c0-11-3-16-7-13c-3,4-12-1-20-11c-8-9-12-11-8-4s0,12-10,12c-9,0-14-4-11-8c2-4,1-14-5-22c-7-13-9-13-9,0c-1,9-6,6-16-10
		c-8-14-13-17-10-7c5,15,2,16-14,7c-11-6-20-16-20-23s-4-6-10,3c-8,12-10,12-10,1c0-8-3-11-7-8c-3,4-12-1-19-12c-8-11-23-17-39-16
		c-14,2-25-1-25-6c0-6-4-7-10-4c-5,3-10,0-10-8c0-9-10-13-30-12c-16,1-31-4-34-11c-3-8-12-11-19-8c-8,3-17-2-21-11c-3-9-10-13-16-10
		c-18,11-51,14-44,4c3-6,0-10-7-8c-25,3-40-1-35-9c2-4-18-8-46-10c-28-1-58-8-66-14c-9-7-13-8-9-2c3,6-1,11-9,11c-9,0-13-6-9-16
		c4-12,1-11-9,2c-14,18-14,18-20-1c-7-20-28-24-43-7c-4,4-3,5,3,2s11,0,11,8c0,13-4,12-19-2c-10-9-18-13-18-8c0,4-7,2-15-5
		c-11-9-15-9-15-1c0,7-5,9-12,4c-18-11-41-10-57,2c-10,7-13,7-8-1c4-7-5-11-23-11c-17,0-27,5-23,10c4,6,1,7-8,1c-20-12-139-12-139,1
		c0,5-5,3-10-5c-9-13-10-13-10,0s-1,13-10,0c-5-8-10-10-10-4c0,7-14,10-35,8c-19-1-38,2-41,8c-5,7-2,8,6,3c9-5,11-4,6,4
		c-6,9-11,9-22,0s-14-8-14,2c0,11-2,11-10-1c-6-10-10-11-10-2c0,6-7,12-15,12s-15-6-16-12c0-7-4-4-9,7s-9,15-9,9c-1-6-8-11-16-11
		s-11,5-8,10c4,6-4,7-21,3c-19-5-26-3-21,4c5,8-2,11-23,9c-16-2-37,3-46,10s-16,10-16,6s-8-1-17,6c-11,10-14,10-9,2c4-7,2-13-3-13
		c-6,0-11,4-11,9s-7,12-16,15c-14,5-15,4-4-9s10-14-4-9c-9,3-16,14-16,23c0,14-2,14-10,1c-5-8-10-10-10-4c0,7-13,10-31,8
		c-27-3-30-2-23,18c6,21,6,21-10,5c-21-20-27-22-21-4c4,8-8,13-37,14c-23,1-47,8-53,16s-22,12-37,10c-22-3-28,0-28,14
		c0,15-2,16-10,3s-10-12-10,4s-2,17-17,5c-11-10-14-10-9-1c7,12-24,18-64,12c-10-1-9,3,5,14c20,15,20,15-2,9c-16-3-23-1-23,8
		c0,11-2,11-10-1s-10-12-15,2c-4,9-13,14-21,11c-7-3-21,3-30,12c-14,13-19,14-25,3c-6-9-9-8-9,7s-2,17-9,6c-7-10-12-8-24,9
		c-9,13-17,17-22,11c-3-6-11-11-16-11c-6,0-7,5-4,10c3,6-3,10-15,10s-28,7-37,16c-9,8-22,13-29,10c-8-3-14-1-14,5s-7,9-15,6
		c-8-4-17-1-21,5c-5,7-2,8,6,3s11-4,6,3c-3,6-15,9-26,7s-20,2-20,8c0,7-4,6-10-3c-8-13-10-12-10,4s-2,17-17,5c-10-7-15-10-11-5
		c4,4,1,14-5,21c-9,10-15,10-26,1c-12-9-14-8-9,5s2,16-13,12c-11-3-19,0-19,7c0,9-4,9-17-1c-14-12-16-12-8,0c6,11,3,13-13,9
		c-12-4-20-2-17,2c3,5,1,11-5,15c-5,3-10,1-10-5s-10-2-22,10c-12,11-24,16-27,12c-3-5-16-3-28,3c-13,7-20,16-15,21c4,4-1,2-11-5
		c-15-12-17-12-12,0c4,11-4,14-35,13c-34-1-38,1-27,14c10,13,9,14-12,3c-13-7-21-8-17-3c3,6,2,13-4,17c-5,3-10,0-10-7c0-9-3-9-8-2
		c-4,6-17,10-29,9s-19,3-16,8s-4,6-18,2c-19-5-21-4-9,4c13,9,12,11-5,12c-11,1-26,1-32,0c-7-1-13,3-13,10c0,8-5,7-17-2
		c-11-10-14-10-9-1c4,6,4,12-1,13c-4,0-17,2-28,4s-39,7-62,11c-24,4-43,11-43,16s-5,6-10,3c-6-4-7-11-4-17c4-7,2-8-5-4
		c-6,4-9,12-5,18c3,5-2,9-12,8c-35-4-45,0-38,13c5,8,2,8-9-2c-14-11-17-11-17,0c0,10-3,10-11,2c-9-9-18-7-38,5c-25,16-26,16-11-2
		c14-18,14-19-8-7c-13,7-30,10-38,7c-7-3-18,3-23,12c-10,16-10,16-11,0c0-9-4-19-9-22c-5-4-7,4-4,16c4,19,3,20-6,8c-8-11-11-11-11-2
		c0,10-5,10-20,2s-20-8-20,1c0,6-6,9-14,6c-7-3-19,0-25,6c-8,8-11,7-11-4c0-12-2-12-10,1c-8,12-10,12-10-5c0-15-2-17-9-6
		c-5,8-16,11-24,8s-20,0-27,6c-10,9-14,9-17,0s-10-10-24-3c-10,6-19,7-19,2c0-10-30-9-47,1c-6,4-14,0-17-9c-4-11-10-13-19-7
		c-17,13-59,14-73,2c-8-7-14-7-19,1c-10,16-25,12-26-7c0-11-3-13-6-5c-2,6-9,12-14,12c-6,0-8-4-5-9s-16-9-42-10c-76-1-81-2-88-12
		c-3-6-12-5-22,3c-13,11-15,11-10-3c4-10,1-16-8-16s-13,7-9,16c4,13,2,13-8-1c-8-10-17-15-20-11c-4,3-7,1-7-6s-5-9-10-6
		c-6,4-18,1-27-7c-12-9-15-9-9,0c12,21-12,13-27-9c-9-13-17-16-22-10c-3,6-1,11,4,11c6,0,11,5,11,11s-12,1-26-10c-15-11-30-18-35-15
		s-9,0-9-7c0-8-4-9-13,0c-10,8-18,6-33-7c-10-9-29-17-42-16c-15,1-21-3-18-12c3-8-2-11-14-9c-11,2-27-3-35-11c-8-9-15-11-15-5
		s-5,11-12,11c-6,0-9-3-5-6c3-3,0-12-6-19c-9-9-17-10-32-3c-11,6-17,7-13,3c5-5-2-15-14-24c-28-19-50-23-42-8c3,7,0,5-8-4
		c-7-9-21-15-31-13c-9,1-15-1-13-4c2-4-2-13-10-20c-11-10-14-10-15,0c0,10-2,10-6,0c-2-6-9-10-14-6c-5,3-9,0-9-7c0-9-3-9-14,0
		c-12,10-13,8-9-11c5-18,3-21-7-11c-10,9-18,6-38-14c-16-16-32-23-47-20c-14,2-22,0-19-7c2-6-7-16-21-23c-14-6-23-7-19-2
		c3,5,2,9-1,9c-9,0-35-27-30-32c2-2-5-4-16-5s-29-12-40-25s-18-17-14-10c3,6,1,12-4,12c-6,0-11-5-11-11s-7-9-15-5c-8,3-14,0-12-7
		c1-7-4-11-10-10c-7,2-13-1-13-7c0-5-7-7-15-4c-13,5-19-4-17-27c0-3-11-5-26-5c-16,1-26-4-25-11c2-7-3-10-11-7s-17,0-22-7
		c-5-8-3-10,6-4c9,5,11,4,6-4c-6-9-11-9-24,1c-13,11-14,11-7-1c6-11,4-13-8-8c-10,4-16,2-14-6c1-7-8-12-20-11c-12,0-20-3-17-8
		c3-4,0-8-6-8s-8-4-5-10c4-6-1-7-11-3c-11,4-15,3-11-4s0-10-10-9c-14,2-18,12-17,39c1,21-3,37-8,37s-4,9,2,20c8,15,8,20-2,20
		c-9,0-9,3,2,10c13,9,13,10,0,10c-11,0-12,2-3,8c7,5,9,13,3,21c-4,8-5,24-1,35c4,12,7,41,5,66c-1,31,3,49,14,58c14,11,14,12,0,12
		c-9,0-19,4-22,9s2,8,11,7c10,0,18,4,18,11c0,6,3,14,6,18c11,10-2,45-15,39c-6-3-3,1,6,9c10,8,15,17,11,20c-3,4,0,7,8,7
		c12,0,12,2,0,9c-13,8-13,12,0,27c12,16,12,17-1,10c-8-4-4,2,10,14s19,19,13,15c-15-7-18,11-3,20c5,3,10,12,10,18c0,7-4,6-10-3
		s-10-10-10-3c0,6,5,15,10,18c6,4,8,11,5,16c-4,5-2,9,3,9c6,0,9,8,8,18c0,9,5,16,12,15c15-4,16,9,0,25c-9,9-9,12,1,12c9,0,12,9,9,24
		c-4,17-1,23,9,19c9-4,11,0,6,13c-4,11-3,15,5,10c7-4,10,1,7,14c-2,11,1,20,6,20c6,0,7,5,4,10c-3,6-1,10,4,10c6,0,11,9,11,20
		s4,20,9,20c6,0,8,9,6,20c-3,14,2,20,13,20c13,0,14,2,4,9c-11,7-10,9,3,15c9,3,13,10,10,16c-3,5,0,10,7,10c9,0,9,3-2,10
		c-13,8-12,10,3,10c10,0,16,4,12,9c-3,5,0,13,6,16c5,4,8,14,5,22s-2,11,4,8c5-3,16,8,25,26c12,23,13,29,3,24c-7-3-5,0,4,8
		c10,8,15,17,11,20c-3,4,2,9,11,13c9,3,16,10,16,16c0,5-6,6-13,2s-9-3-4,2s14,9,20,9c7,0,11,10,11,22c-1,13,3,20,9,16s8,0,4,11
		c-4,10-3,15,3,11c6-3,10-1,10,5s5,8,13,4c7-5,6,0-3,11s-10,16-2,11c7-4,15,0,19,11c3,10,14,26,25,36c10,10,18,27,18,37
		c0,11,4,20,10,20c5,0,15,10,21,23c11,20,11,21-5,8c-9-8-19-11-23-7c-3,3-1,6,5,6c7,0,12,7,12,16s-5,12-12,8c-8-5-9-2-5,9
		c4,10,2,17-4,17s-9,7-5,15c3,8,0,14-7,12c-7-1-11,4-10,11c2,6-2,12-8,12c-5,0-8,4-4,9c3,6-3,15-12,21c-15,9-14,10,7,5
		c25-5,25-5,2,6c-20,11-24,17-21,35c0,4-5,11-13,15c-11,7-10,11,2,20c12,8,10,9-8,4c-23-7-28,12-7,27c6,4,2,8-8,8s-15,5-12,10
		c3,6,3,15-1,21c-4,8-9,7-15-2c-6-10-8-7-6,8c0,12,5,19,9,17c4-3,5,2,2,10c-3,9-10,16-16,16c-5,0-6,5-3,10c3,6-1,10-9,10
		c-9,0-16,5-16,11c0,5,5,7,11,3c8-4,8,0,0,15c-7,12-10,25-7,30c3,4-1,17-10,27c-14,18-14,17-4-6s10-23-4-7c-8,10-13,29-11,43
		c1,13-2,24-7,24s-6,5-3,10c3,6,0,12-7,15s-14,19-15,36s-8,38-15,47c-11,13-11,14,0,8c11-7,12-4,3,13c-7,11-17,21-24,21s-8,3-2,8
		c14,10,17,32,4,32c-7,0-10,12-7,29c3,21,1,28-9,24c-17-6-17,9,0,26c10,11,10,13,0,7c-9-5-13,1-13,21c0,16-6,35-12,42
		c-9,10-9,12-1,7c6-3,15-1,19,5c4,7,3,9-3,6c-6-4-19,0-29,8c-18,14-18,15,0,9c16-6,17-4,8,13c-6,11-8,23-5,27c3,3,0,6-8,6
		c-11,0-11,2,1,10c8,5,11,10,5,10c-5,0-11,18-12,40c-2,25,1,39,7,35c16-10,11,1-7,16c-14,12-16,12-8,0c5-9,4-12-3-8
		c-11,8-11,25,1,45c5,6,4,12-1,12s-12,14-14,30c-3,17-1,30,4,30s6,6,1,13c-4,6-6,20-4,31c2,12-1,16-10,11c-9-6-9-4-3,6
		c13,20,13,92,0,102c-7,5-6,10,4,17c13,8,12,11-5,25c-11,9-15,14-9,11c7-3,14,1,18,9c3,8,0,15-6,15c-7,0-6,5,2,15c7,8,8,15,3,15
		s-9,9-9,19c0,11,4,17,8,15c15-10,8,9-9,23c-10,8-13,12-7,9c7-3,14,1,18,9c3,8,0,15-7,15c-8,0-6,4,3,10c12,8,12,10,1,10s-11,3,0,17
		c12,15,12,16-1,8s-13-7-1,9c12,14,12,19,2,26c-8,5-9,10-3,14c6,3,8,16,4,28c-4,15-2,19,7,13c10-6,11-3,2,14c-10,17-9,22,4,27
		c8,4,23,0,32-7c14-12,16-12,9,0c-6,9-5,12,5,9c8-3,13-11,11-18c-2-8,5-9,19-5c16,5,19,4,14-6c-6-9-3-11,8-6c10,3,17,2,17-3
		s7-7,16-3c8,3,25-4,40-17c16-16,24-19,24-10s6,5,16-8c9-13,21-21,27-19c7,3,22-5,34-16c13-11,23-16,23-10s-6,13-12,16
		c-7,2-10,8-6,12s14-2,24-14c10-11,21-18,26-15c4,3,8-3,9-13c0-16,1-16,9,2c7,17,9,17,9,3c1-12,6-15,18-11c11,4,14,3,9-5s0-12,13-12
		c12,0,21-6,21-12c0-9,4-8,10,2c8,13,10,12,10-2c0-10,5-18,11-18c5,0,7,6,3,13c-4,6,2,4,13-5c11-10,23-18,28-18c4,0,14-8,22-17
		c8-10,12-12,8-6c-4,9-1,11,9,7c9-3,16-10,16-14c0-5,9-7,19-5c11,2,27-5,36-16c10-10,22-16,26-13c5,3,9-2,9-10c0-9,7-13,20-11
		c11,2,33-7,49-20c15-14,31-22,35-18c6,6,10-12,7-30c-1-5,3-6,9-2c6,3,8,12,4,18c-3,7,4,1,16-13s19-19,15-13c-4,9-1,11,9,7
		c9-3,13-10,10-15s3-9,14-9s31-12,46-26c14-15,26-21,26-15c0,7,5,9,10,6c6-4,8-11,5-16c-4-5,3-9,15-9c14,0,19-4,14-12s-2-8,10,1
		c9,8,16,10,15,5c-4-21,2-35,11-29c5,3,20-5,33-19c17-18,27-22,39-15c13,7,16,5,14-15c-2-18,1-22,16-18c10,2,18-1,18-7s3-10,8-10
		c21,4,23-3,6-22c-10-12-18-23-16-25c6-10,1-25-7-20c-5,3-11-4-14-15c-4-14-10-18-19-13c-11,6-11,5,0-8c15-19,0-34-20-22
		c-8,5-7,0,2-11c8-10,10-16,3-12c-7,5-17-2-24-15s-12-24-11-25c6-11-13-31-24-26c-10,4-12,0-7-13c4-10,2-15-3-11c-6,3-16-4-24-16
		c-11-19-11-21,1-12c8,6,3-1-11-14s-18-20-10-16c8,3,6-1-4-9c-11-9-16-19-12-23c3-4-4-13-16-20c-15-8-18-12-8-13c12,0,12-2,2-9
		c-7-4-14-14-15-22c-2-8-6-20-10-26c-5-7-6-17-2-22c3-5,0-13-6-17c-8-5-9-3-4,6c5,8,4,11-2,7s-9-22-8-42c1-34-9-47-18-22
		c-3,6-4-1-4-18c1-16,9-36,17-43c13-10,12-11-5-5c-11,3-17,3-13-1c4-5,2-20-3-35c-9-25-9-25,7-6l17,20l-8-20c-4-11-9-26-12-32
		c-3-8,2-13,12-13s13-4,9-12c-6-9-3-9,9,0c9,8,22,10,28,6c7-4,9-3,5,4c-7,12,28,35,38,24c4-3,4,1,0,11c-5,13-2,16,10,11
		c9-3,16-1,16,6c0,6,5,8,12,4c7-5,9-2,6,8c-4,8,0,15,8,15c7,0,11-5,8-11s4,0,16,14s19,19,15,12c-6-11-3-11,13-1c12,7,18,17,15,22
		c-3,4,1,8,8,6c28-3,40,1,33,13c-5,8-2,9,9,5c10-3,17-2,17,3s8,6,17,3c13-5,15-2,10,12c-6,15-5,16,8,5s14-10,9,3c-4,11,0,15,13,13
		c10-2,24,4,31,13c8,9,11,10,7,4c-3-7-1-13,4-13c6,0,11,7,11,15c0,9,6,12,15,9c9-4,15,0,15,7c0,12,2,12,9,0c7-11,10-9,16,9
		s9,20,16,9c7-12,9-12,9,0c0,8,7,11,20,8c11-3,18,0,17,7c-1,6,4,10,11,9c6-2,12,1,12,6s7,12,16,15c10,4,13,2,8-7c-6-8-3-8,9,1
		c9,8,21,11,27,7s9-2,8,3c-2,6-1,10,2,9c3,0,14,5,26,11c16,8,24,8,33-1c10-9,11-8,6,6c-6,13-2,17,14,17c12,0,21,6,21,13
		c0,8,4,7,10-3c7-12,10-12,10-1c0,8,6,11,16,7c11-4,15-2,11,8c-4,11,1,13,19,10c14-3,23-1,20,4s7,9,22,8c17-1,26,4,24,12
		c-1,8,2,11,8,7s18-1,26,6c13,10,17,10,25-2c7-12,9-12,9,1s1,13,10,0c8-13,10-12,10,4s3,17,12,8c10-10,16-8,31,10c10,13,16,17,12,11
		c-3-7-1-13,4-13c6,0,11,5,11,11s7,9,15,6c8-4,17-1,21,4c4,7,10,7,17,0c14-14,27-14,27,0c0,5-5,7-12,3s-8-3-4,5c6,9,11,9,22,0
		s13-9,9,2c-4,10,5,14,35,15c21,1,47,5,57,9c34,15,55,16,47,3c-4-7,3-3,15,10c26,26,25,26,45,6c9-9,16-11,16-4c0,6,5,8,10,5
		c6-3,10-2,10,3s13,12,29,14c17,2,28,1,25-3c-6-10,24-5,33,6c4,4,2,5-4,1c-9-5-11-2-6,10c4,11,8,13,11,6c2-7,13-12,23-12
		c11,0,18,3,16,8c-3,4,24,6,59,5c37-1,62,2,59,8c-3,5,1,6,9,3c9-3,13-11,9-17s-1-7,6-3c7,5,10,15,7,25c-5,13-3,13,8-2
		c9-12,16-14,21-8c3,6,11,11,16,11c6,0,8-4,5-8c-2-4,4-8,14-8s16,6,13,12c-2,7,1,15,7,19c6,3,9,1,8-6c-2-6,3-14,11-17c10-3,11,0,5,9
		c-6,11-3,10,11-1c17-14,18-13,12,5c-6,17-3,16,15-5c12-14,19-18,15-8c-6,16,15,32,27,20c12-11,36-10,36,1c0,7,5,5,10-3
		c9-13,10-13,10,0s1,13,10,0s10-13,10,0c0,12,2,12,9,1c7-10,13-11,30-2c11,7,21,8,21,3s7-9,15-9s15,4,15,8s13,4,29-1c21-6,31-5,34,3
		s11,5,22-8c9-11,14-15,11-9c-3,7,3,14,14,17s20,0,20-5c0-7,5-6,14,1c11,9,15,9,18,0s9-9,25,0c18,9,24,8,32-6c6-10,11-13,11-8
		c0,7,15,9,36,7c28-3,35-1,29,8c-6,10-4,11,6,4c8-5,26-9,42-10c15-1,31-5,35-9c4-5-1-5-10-2c-10,3-20,2-22-2c-8-12,58-8,66,4
		c5,6,8,5,8-4c0-11,3-11,17,0c14,12,16,12,11-2c-4-11,0-15,16-15c11,1,24,6,28,11c5,6,8,5,8-2s6-10,13-7c8,3,26,0,41-6
		c21-8,26-7,20,3c-4,6,3,3,15-7c22-20,22-20,16,0c-6,16-3,15,14-5c19-21,21-21,21-5c1,18,1,18,15,0c8-11,15-14,15-7s5,9,12,5
		c19-12,48-12,48,0c0,6,4,5,9-3c5-7,14-10,20-7c6,4,14,1,17-8c3-8,13-17,21-20c12-5,13-3,5,7s-6,13,8,13c10,0,17-3,14-7
		c-7-12,45-16,56-5c8,8,9,7,5-5c-4-10-1-20,6-25c8-4,10-3,5,4c-4,7-4,12,1,13c4,0,16,2,26,4c9,2,15-1,11-6c-3-5-10-6-16-3
		c-7,4-8,2-4-5c4-6,12-9,17-6c5,4,9,2,9-3s10-8,23-7c12,1,28-3,36-9c11-8,13-8,7,2c-4,6-3,12,3,12c5,0,15-8,20-17c10-17,10-17,11,0
		c0,9,4,17,10,17c5,0,7-7,3-17c-5-13-2-15,15-11c14,4,20,2,15-5c-4-6,2-8,15-5c12,4,22,1,22-4c0-6,6-5,15,2s18,10,22,6c3-3,1-6-6-6
		c-9,0-8-4,3-15c18-18,30-20,20-2c-4,6,3,3,16-8s20-14,16-7c-4,6-2,12,3,12c6,0,11-5,11-11c0-5,5-7,10-4c6,3,10,1,10-6c0-8,5-7,17,2
		c9,8,14,10,11,4c-3-5,0-16,8-23c10-9,14-9,14-1s4,8,15-1c12-10,15-10,15,1s2,11,9-1c6-8,7-19,4-25c-3-5,0-5,7,2c11,10,16,9,26-5
		c8-10,13-12,14-5c0,10,6,10,25,1c13-6,22-15,19-19c-3-5,2-6,10-3c9,3,16,2,16-4c0-5,11-8,25-7c13,2,30-4,37-13c12-16,11-16-7-2
		s-19,14-7-2c8-10,20-14,29-11c12,5,14,3,8-8s-5-12,6-1c19,17,45,16,30-1c-8-10-7-14,2-15c76-11,87-15,76-28c-8-10-5-12,15-8
		c18,3,28-1,32-11c3-8,10-12,15-9s9,0,9-6s4-9,9-5c5,3,13,1,16-5c5-8,12-7,23,2c13,11,14,10,4-9c-11-19-9-21,13-18c15,1,29-4,35-14
		c5-9,10-12,10-8c0,5,7,2,15-7c9-8,23-12,32-9c11,4,14,3,9-5c-4-7-2-12,4-12s8-5,4-11c-4-7,1-7,16,1s20,8,16,1c-4-6,0-11,9-11
		s13-4,10-10c-3-5,1-10,9-10c9,0,16-4,16-10c0-5,7-6,17-3c12,5,14,3,8-8c-4-8-5-11,0-7c4,4,14,3,21-3c8-7,14-7,19,1c4,6,1,9-6,8
		c-9-2-13,10-13,40c1,23-3,42-7,42c-5,0-9,9-9,21c0,11-4,18-8,15c-5-3-9,1-9,9s5,11,11,8c6-4,3,3-7,14c-14,16-15,22-5,26
		c8,3,6,6-6,6c-16,1-17,3-5,18c8,9,10,14,4,11c-5-3-16,0-23,8c-10,11-10,14,0,15c10,0,10,2,0,6c-6,2-10,9-6,14c3,5-2,9-11,9
		c-13,0-14,4-5,20c8,16,8,20-2,18c-8-2-12,5-10,16c2,10,0,16-5,13c-4-3-14,1-21,9c-10,11-10,14,0,14c9,0,9,3-2,10c-8,5-10,10-5,10
		c6,0,2,5-7,11c-10,5-18,20-18,31c0,12-3,19-6,15c-10-10-42,36-39,56c2,9,0,15-6,12c-9-6-14,9-9,30c1,5-1,7-5,3c-10-10-35,17-35,37
		c0,11-5,15-14,12c-11-4-13-1-9,10s2,14-5,9c-8-5-10-2-6,8c4,11,0,16-11,16c-15,0-16,2-4,17c12,14,12,16-1,9c-8-4-6,0,5,9
		s19,21,17,26c-1,6,2,8,8,4c11-7,52,18,45,28c-3,4-2,5,1,2c11-8,45,15,38,26c-3,6,0,10,7,8c8-1,23-1,34,0c15,1,17,3,6,10
		c-10,6-5,11,19,16s29,10,19,16c-11,7-9,9,8,9c12,0,29,8,39,18c18,17,21,18,50,21c8,0,12,6,9,11c-3,6,1,10,9,10c9,0,16,5,16,11
		c0,5,4,8,9,4c5-3,16,1,24,9s17,12,21,9c3-4,6-1,6,5c0,7,5,12,11,12c5,0,7-6,3-12c-4-8-3-10,2-5s9,14,9,20c0,7,6,13,13,13
		c6,1,15,3,20,4c4,1,10,2,15,1c4,0,7,6,7,14s5,15,11,15c5,0,7-6,4-12c-4-7,0-5,8,4c8,10,17,15,20,11c4-3,7,0,7,8c0,11,2,11,10-1
		c9-13,10-13,11,0c1,8,1,17,1,20s10,6,23,6c28,2,58,27,47,40c-4,5,0,3,9-4c17-13,53-6,44,8c-3,5-1,11,5,15c5,3,10,0,10-7
		c0-10,2-10,9,1c5,8,14,10,21,6c8-5,11-4,7,2s0,16,8,23c13,11,14,10,9-6c-4-15-1-13,16,6c12,14,19,19,15,13c-8-18,26-4,43,16
		c8,9,10,10,7,3c-6-11-3-11,16,0c13,7,27,18,31,23c5,6,8,5,8-3c0-7,5-10,10-7c6,4,8,10,5,15s-1,11,5,15c5,3,10,2,10-3s7-9,15-9
		c9,0,14,6,11,13c-5,13,11,13,31,1c9-5,11-3,7,6c-3,8,0,18,7,23c8,4,10,3,5-4c-4-7-2-12,3-12c6,0,11,5,11,11s9,9,20,6s18-1,14,4
		c-3,5,4,9,16,9c14,0,19,4,14,12c-5,7-2,9,8,6c8-4,21-2,29,3C6431,6124,6433,6123,6428,6095z M1070,6030c0-5-2-10-4-10
		c-3,0-8,5-11,10c-3,6-1,10,4,10C1065,6040,1070,6036,1070,6030z M3803,6023c-3-7-6-13-8-13s-5,6-8,13c-3,8,1,14,8,14
		S3806,6031,3803,6023z M250,5980c0-5-5-10-11-10c-5,0-7,5-4,10c3,6,8,10,11,10C248,5990,250,5986,250,5980z M6293,4905
		c-3-9-8-14-10-11c-3,3-2,9,2,15C6294,4925,6300,4922,6293,4905z M7055,3600c-3-5-1-10,5-10s8-5,4-11c-4-8-9-7-15,2c-7,12-3,29,7,29
		C7059,3610,7058,3606,7055,3600z M1740,3566c0-2-8-10-17-17c-16-13-17-12-4,4S1740,3574,1740,3566z M781,3477c-6-8-7-18-3-22
		c4-5,2-5-5-1c-14,8-6,36,9,36C789,3490,788,3485,781,3477z M2358,3032c15-2,21,1,17,8s2,7,20,0c34-13,38-13,29,2c-4,6-3,8,3,5
		c6-4,27-9,47-12c27-3,35-1,29,8c-4,7,0,7,10-2c9-7,17-10,17-6s8,1,17-6c11-10,14-10,9-1c-4,7-1,12,9,12c9,0,13-5,9-11
		c-4-8,0-8,15,0c17,10,21,9,21-3c0-8,4-17,9-20c5-4,7,4,3,16c-5,20-4,21,11,9c9-7,14-18,10-25c-4-6,1-5,10,3c9,7,17,10,17,5
		s5-2,10,6c8,12,10,12,10,1c0-9,8-12,25-9c14,3,27,2,30-1c2-4,20-6,39-6c20,1,36-2,36-6c0-5,6-6,14-3s17,0,22-7c5-8,3-10-6-4
		c-9,5-11,4-6-4c6-9,11-9,22,0s14,8,14-2c0-11,2-11,10,1c5,8,10,10,10,4c0-7,17-11,43-10c32,1,42-3,41-14c-1-12,9-15,39-15
		c23,0,41-5,44-12s9-10,14-7s6,11,2,17c-4,7,0,6,10-2c19-15,23-26,5-15c-6,4-8,3-5-3c4-5,21-10,38-11c18,0,35-5,38-10s16-8,29-7
		s26-3,29-8c4-6,1-7-7-2c-9,5-11,4-6-3c5-8,13-9,24-3c16,8,48-10,36-21c-2-3,3-5,11-5s11,5,8,11c-4,6,0,5,9-1c8-7,27-14,42-15
		c17-2,25-7,21-16c-2-7-1-11,4-7c5,3,11,2,14-2c2-5,2-3,1,4c-2,7,3,10,12,6c7-3,14-9,14-13c0-5,11-7,25-5c14,1,28-2,32-8s1-7-7-2
		c-9,6-11,4-6-4c5-7,14-10,22-7s14,0,14-6c0-7,5-6,15,2c12,10,16,9,21-4c3-9,15-16,25-16s19-4,19-9c0-6,8-10,18-10c39-1,50-5,46-16
		c-3-6,7-10,23-9c17,0,33-6,41-18c7-10,18-18,24-18c7,0,3,7-8,16c-10,9-1,5,20-7c22-13,36-17,32-11c-6,9-1,10,18,0c14-6,26-18,26-27
		c0-13,2-13,9-3c10,17,21,17,31,3c3-7,20-13,37-14c24-2,30-6,27-20c-3-16-1-17,13-5c14,11,17,11,21-1c4-11,6-11,13,0s9,11,9,1
		c0-7,4-10,10-7c5,3,7,0,4-8s1-14,10-14c8,0,12,5,9,10c-4,6-1,7,8,1c8-4,20-9,28-11c8-1,18-8,22-15c7-10,9-10,9,2c0,11,3,10,11-4
		c9-15,13-16,20-5s9,11,9,1c0-7,5-10,10-7c6,3,10,1,10-5s5-8,10-5c6,3,10,1,10-4c0-6,5-11,11-11c5,0,7,6,4,13c-4,6,0,5,7-5
		c9-10,26-15,46-14c21,1,32-2,32-11c0-7,5-13,11-13c5,0,7,6,3,13c-4,6,1,5,12-4c10-9,25-14,33-11c10,3,11,0,5-9c-7-12-5-12,9,0
		c14,11,17,11,17,0c0-10,3-10,11-2c13,13,42,5,33-9c-4-6,2-5,14,1c15,8,23,8,28-1c4-7,3-8-4-4s-12,3-12-1c0-5,24-10,53-11
		c89-5,102-7,108-15c3-4,15-9,27-12c12-2,27-7,34-11s8-3,4,4s-1,12,9,12c9,0,13-4,10-10c-4-7,3-7,19,0c17,6,26,6,26-1c0-6,7-6,20,1
		c11,6,20,7,20,3c0-12,154-10,162,2c5,6,8,7,8,0c0-12,50-13,68-2c6,5,12,4,12,0c0-5,9-9,20-10s18,2,16,6c-3,4,1,8,9,8s15-4,15-8
		s11-6,24-5c15,0,21,5,16,11s2,11,17,12c16,0,21-2,14-7c-10-5-8-9,4-13c9-4,13-3,10,3s1,10,9,10c9,0,16,5,16,11s7,3,16-5
		c18-19,21-19,30-4c4,6,3,8-4,4c-6-3-13-2-16,2c-3,5,15,9,39,8c25-1,45,2,45,6s16,6,36,4c19-1,38,2,41,7c3,6,1,7-5,3c-6-3-13-2-17,3
		c-3,6,4,8,17,6c12-3,26,1,30,8c5,8,8,8,8,1c0-17,50-8,67,13c8,10,12,12,8,6c-3-7-2-13,4-13c5,0,11,4,13,10c2,5,15,11,31,12
		c15,1,27,7,27,13c0,5,5,3,10-5c9-14,12-12,9,6c-2,15,26,22,40,11c12-10,13-9,6,2c-6,11-2,13,19,9c17-4,26-1,26,8c0,7,5,16,12,20
		s8,3,4-4c-11-19,5-14,20,6c9,11,13,13,14,4c0-7,5-10,10-7c6,4,7,12,3,18c-4,7,1,6,11-2c9-8,16-10,15-5c-4,21,2,26,17,14
		c12-11,15-11,12,0c-2,7,3,15,11,18c10,3,11,0,5-9c-6-11-5-12,8-2c8,7,19,9,24,5c4-4,2,2-6,12c-9,12-10,17-3,12c14-8,54,10,66,31
		c7,11,12,11,23,2c10-8,14-8,14-1s8,9,18,5c15-6,16-5,2,12s-13,18,3,12c10-4,17-2,17,6c0,9,2,9,8,0c6-10,12-10,28,3c10,8,12,12,4,8
		c-12-5-13-4-3,6c7,7,23,14,35,16c13,1,26,3,30,3c4,1,4,9,1,19c-6,15-5,15,10,3c13-10,17-10,17-1c0,8,8,10,21,7c16-4,18-3,8,9
		c-9,11-8,14,6,14c10,0,24,8,32,18c8,9,11,11,7,3c-5-10,5-7,28,7c19,12,39,18,44,14c4-4,3,0-4,9c-11,14-9,16,10,15c13,0,22,4,21,11
		c-2,8,4,10,14,6c12-5,14-3,8,7s-4,12,9,7c14-6,17-3,12,10c-6,14-4,15,5,6s16-7,31,10c11,12,17,15,13,7s1-6,10,5s21,19,26,18
		c5-2,9,1,9,7c0,5,6,7,14,4s17,0,22,7c4,7,3,10-3,6c-5-3-10,0-10,7c0,8,8,11,19,8c10-2,18,1,18,9c0,7,3,9,7,6c3-4,11,0,17,8
		c10,14,13,13,28-5c10-11,13-20,7-20c-5,0-8-4-4-9c3-5,0-13-6-17c-8-4-9-3-5,4s2,12-3,12c-14,0-14-13,1-28c9-9,9-12-1-12s-11-3-2-14
		c8-10,9-16,1-21c-6-3-8-11-5-16c4-5,1-9-6-9c-8,0-8-4,1-15c11-13,10-14-1-10c-10,4-15-3-17-21c-1-15-8-34-15-42c-9-13-9-14,1-8
		c6,4,12,2,12-3c0-6-5-11-11-11c-8,0-7-6,2-17c10-11,10-14,2-9c-9,5-13,1-13-11c0-15-2-16-11-3s-10,12-5-2c3-10,9-26,12-35
		c5-15,4-16-5-3s-11,11-11-7c0-12-5-25-11-28c-6-4-8-13-5-21s-1-14-9-14s-15-5-15-11c0-7,7-8,17-4c12,4,7-5-12-26
		c-17-18-22-27-12-20c24,19,21,6-5-19c-12-11-16-20-9-20c9,0,9-3-1-14c-7-8-17-11-23-8c-5,3-4-1,3-10c10-13,10-18,1-24c-8-5-9-3-4,6
		c5,8,4,11-2,7c-5-3-9-20-8-36c2-27,0-29-19-19c-18,10-19,9-8-4c10-13,10-17-4-22c-13-5-14-9-4-21s10-15-3-15c-9,0-19-5-23-12
		c-5-7-2-9,7-4c8,4,6,1-3-7c-14-11-15-16-5-27c7-7,8-11,2-8c-5,3-18-3-27-14c-10-10-13-18-6-18c6,0,1-8-10-19c-12-10-22-26-22-35
		c0-11-5-14-12-10c-7,5-9,2-5-9s2-14-8-11c-9,4-12,0-8-14c3-14-1-22-16-27c-11-3-20-9-20-13c3-20-3-31-20-37c-12-4-18-13-16-25
		c2-10-6-27-18-37c-21-18-21-18-7,2c14,18,14,19-2,7c-10-8-20-23-24-34c-3-11-11-17-18-15c-7,3-13-1-13-9c0-7,5-11,11-8s3-1-6-9
		c-10-8-15-17-11-21s0-4-9-1c-9,4-19,1-24-6c-5-8-3-10,7-4c12,8,12,6,0-8c-7-9-18-14-23-11s-8-2-6-12c2-13-2-18-15-16
		c-9,2-16-1-15-5c4-13-50-65-61-58c-6,3-9,0-5-8c3-8-5-19-18-26c-13-6-15-9-5-7c26,8,20-3-9-14c-16-7-23-14-18-22c5-9,2-8-9,1
		c-15,12-17,12-11-3c6-14-5-21-28-17c-5,0-7-2-5-7c3-9-45-57-58-57c-5-1-9-7-7-15c3-11,0-11-13,0s-15,10-9-4c4-9,3-16-2-15
		c-22,4-35-2-28-13c5-8,2-9-9-5c-10,3-16,2-14-4c1-6-9-18-23-27c-19-14-22-14-15-2c8,13,6,13-8,1c-9-7-15-17-12-21c7-11-32-23-45-15
		c-5,3-8,0-5-7c2-7-8-22-23-33c-19-13-23-14-14-3c11,14,10,16-7,11c-13-3-18-10-14-21c4-10,2-13-5-8c-7,4-15,0-18-9c-6-13-8-14-15-3
		c-7,10-9,9-9-4c0-9-5-20-12-24c-7-5-8-3-3,7c8,12,6,12-8,1c-9-8-21-11-26-8c-6,4-8-1-6-12c2-14-3-17-31-17c-25,1-31-2-24-10
		c14-17,1-26-21-14c-11,5-18,6-17,2c2-4-1-9-6-10s-12-5-15-10c-3-4-15-15-25-23c-18-13-19-13-11,0c7,12,6,13-7,3c-8-7-18-9-22-5
		s-7,3-6-3c5-22-1-27-15-15c-13,11-14,10-8-5c5-14,3-17-10-12c-9,3-17,2-17-3c0-6-9-10-21-10c-13,0-18-4-13-12c4-6,3-8-4-4
		c-6,3-13,2-17-4c-3-5-11-10-16-10c-6,0-7,5-4,11c4,6-2,5-14-3c-12-7-21-16-21-21c0-4-4-6-9-2c-5,3-17-5-26-17l-17-23l6,25
		c3,14,3,19,0,12c-3-6-10-10-15-6c-5,3-8,0-7-8c2-8-7-13-25-12c-23,0-26-3-21-20c4-17,3-18-5-6c-6,8-11,11-11,5c0-5-5-3-10,5
		c-8,13-10,12-10-4c0-11-3-16-7-13c-3,4-13,1-21-6c-13-9-14-9-8,0c4,7,3,13-3,13c-5,0-13-10-16-21c-5-16-9-18-15-8c-7,10-11,10-24,0
		c-9-7-22-11-31-8c-8,4-17,1-21-5c-4-7-3-8,4-4c18,11,14,0-5-15c-10-8-14-9-10-2c4,6,3,14-3,18c-5,3-10-1-10-9c0-10-6-13-15-10
		c-8,4-15,1-15-6c0-10-3-10-15,0c-11,9-15,9-15,1c0-7-4-10-9-7s-11-1-14-9c-4-8-15-12-27-10c-11,2-20,1-20-3s-20-7-44-7
		c-33,1-46-3-49-15c-3-10-14-15-33-14c-16,1-29,3-29,4s-8,3-18,5s-21-3-24-11c-4-11-9-12-18-4c-10,8-16,7-22-5c-5-9-26-18-46-20
		c-26-2-35,0-30,8c4,7-4,4-19-5c-14-9-29-14-32-11c-4,4-14,8-24,9c-14,2-14,0,3-13c20-16,16-15-30,3c-12,5-14,2-8-12c7-18,6-18-12,0
		c-17,17-20,17-29,3s-11-14-23,1c-11,14-12,14-8,1c5-13-5-15-68-15c-62,1-74-1-69-14c4-11,1-11-15,3c-15,13-22,15-25,6
		c-2-7-14-13-27-14c-15-1-20,2-16,13c4,12,3,12-9,3c-11-9-20-10-35-2c-14,8-22,8-27-1c-4-7-3-8,4-4s12,5,12,2s-9-10-20-16
		c-17-9-19-8-13,7c5,15,3,16-8,6c-16-16-33-17-23-2c4,7,1,10-7,7s-13-10-12-15s-11-7-28-5c-18,3-26,9-22,16c3,6,0,6-8-1
		c-17-17-32-17-23,0c4,6-3,3-15-7c-22-20-22-20-15,0c7,17,6,17-9,5c-14-11-17-11-18,0c0,8-4,5-9-6c-6-15-9-16-9-4c-1,11-11,16-35,15
		c-19-1-32-4-30-8c6-10-27,2-43,15c-8,5-13,6-13,0c0-5,6-15,13-23c6-8-1-4-17,10s-26,20-22,13c3-6,2-14-4-18c-5-3-10,2-11,12
		c0,11-3,13-6,5c-4-10-8-10-19-1c-10,8-14,8-14,0c0-7-8-8-22-2c-13,4-38,7-55,6c-18-2-33,1-33,6c0,6-9,5-21-2c-15-8-19-8-15,0
		c12,19-43,17-57-2c-6-8-7-5-3,5c3,10,4,18,2,18c-3,0-11,3-20,6s-16,1-16-6c0-6,5-8,12-4s8,3,4-4c-8-13-36-5-36,10c0,5-9,7-19,3
		c-11-3-23-1-26,6c-6,8-10,7-16-2c-8-12-11-12-18,0c-10,16-27,21-81,24c-19,2-40,6-47,10c-6,4-14,3-18-3c-4-7-12-7-26,0
		c-10,6-19,8-19,4s-9,1-20,11c-10,9-26,15-35,12c-8-4-15-2-15,4s-4,7-10,4c-5-3-10-1-10,4c0,6-5,11-10,11c-6,0-9-3-8-7c2-5-1-8-7-8
		c-5,0-9,4-7,9s-4,6-13,2c-9-3-13-2-10,3s1,12-5,16c-5,3-10,2-10-3s-7-9-15-9s-11,5-8,10c4,6,0,8-10,4s-17-1-17,6c0,9-3,8-9-1
		c-6-10-10-9-14,7c-4,18-9,20-31,11c-22-8-26-7-26,8s-2,15-10,2c-7-11-10-11-10-2c0,7-4,11-9,7c-5-3-15,1-23,8c-7,8-26,13-41,13
		c-24-2-31,5-29,25c1,4-8,4-20,1c-16-4-19-2-13,9c7,11,6,12-6,2c-9-7-20-8-29-3c-8,5-18,6-22,4c-4-3-5,3-1,13c3,10,3,15-2,11
		c-4-4-17-2-29,4c-21,12-27,14-47,17c-5,0-7,7-3,14c5,8,2,8-9-2c-15-11-17-11-17,2c0,11-6,13-22,9s-19-2-13,8s4,12-8,7
		c-10-3-17-2-17,3s-8,6-17,3c-13-5-15-2-10,11c6,14,3,16-13,11c-11-4-20-2-20,4s-6,11-14,11s-16,4-18,9c-1,5-12,11-23,13
		c-11,1-26,11-34,21c-8,11-21,17-32,14c-12-3-25,3-34,16c-8,12-15,17-15,12s-7,0-16,11c-8,10-13,12-9,4s-2-5-13,8
		c-14,15-22,18-25,10s-6-5-6,6c-1,12-6,16-16,13c-8-4-17-1-21,5c-5,7-2,8,6,3c9-6,11-4,6,4c-5,7-14,10-22,7s-14,1-14,11
		c0,9-3,13-6,10c-10-9-46,12-39,23c4,6-1,7-11,3c-13-5-15-3-9,7s4,12-11,6c-10-4-15-4-12,0c11,10-15,32-31,26c-8-3-12-1-9,4
		s0,14-7,21c-11,10-15,10-18,0c-3-7-6-4-6,6c-1,10-5,16-10,12c-5-3-12,4-16,15s-11,17-17,14c-5-3-16,3-24,15c-9,12-19,19-24,16
		s-12,0-16,6c-5,8-2,10,7,4c8-4,1,4-15,19c-16,14-33,23-37,20c-5-3-10,0-10,5c-1,6-2,15-3,20c0,5-5,13-10,18s-6,3-2-4s3-13-2-13
		c-6,0-13,7-16,16s-11,12-18,8c-9-6-9-3,0,9c12,14,11,16-7,12c-16-3-21,1-21,17c0,12-3,19-6,15c-9-8-46,32-39,43c4,6-1,7-11,3
		c-13-5-16-3-11,10c3,9,3,16-1,16c-21-3-32,3-32,17c0,8-4,12-10,9c-5-3-10,4-10,15c0,16-5,20-15,16c-8-3-14,0-12,7c1,7-4,11-11,9
		c-8-1-10,2-7,8c4,6-3,19-14,29c-12,10-21,26-21,34c0,11-6,14-15,11c-11-5-13-2-8,12c5,12,3,15-6,9c-10-5-11-2-7,13c6,17,3,20-14,17
		c-11-2-18,0-15,6c11,16-5,48-21,42c-12-4-13-1-5,20c9,22,8,25-6,20c-13-5-15-2-9,12c4,11,4,16,0,12c-9-9-45,43-38,55c3,4,1,8-4,8
		c-6,0-13,7-16,16c-4,9-2,13,5,8c8-4,7,0,0,15c-7,11-14,21-17,21s-2-6,2-12c4-8,3-10-2-5s-9,12-9,15c0,4-4,13-9,21c-6,9-5,12,1,8
		s14,0,17,9s11,12,18,8c8-5,7,0-2,11c-8,10-10,16-4,12c7-4,15,0,18,9c3,8,11,12,17,8c8-4,9-3,5,4s-2,12,4,12s8,5,4,12c-5,8-2,9,12,4
		c10-4,15-4,12-1c-4,4,6,20,22,35s26,31,22,35c-3,3,2,3,11-1c12-4,17-2,15,7c-2,8,4,13,14,13c10-1,15,2,12,7s0,9,6,9s8,5,4,12
		c-5,7-3,8,5,3c14-8,51,26,51,47c0,9,3,9,10-2c9-14,15-7,11,14c-1,5,5,3,14-4c13-11,15-10,9,4c-4,9-3,16,2,15c16-4,44,13,38,22
		c-3,6,6,8,21,5c24-4,25-3,13,11c-11,14-11,15,0,9c8-5,19-1,28,10s13,13,9,7c-4-9-1-11,10-7c9,4,14,12,12,19c-5,12,3,14,55,17
		c23,2,25,5,16,23c-10,18-10,19,5,6c12-9,17-10,17-2c0,7,4,10,9,7c4-3,19,4,32,15s31,18,41,16c11-3,15-1,11,6c-4,6,0,8,10,4
		c10-3,17-2,17,3c0,6,10,10,21,10c12,0,28,8,35,18c13,16,14,16,7-2c-4-13-3-17,5-12c7,4,12,13,12,21s9,12,25,10c15-1,29,4,35,14
		c5,9,10,11,10,4c0-15,41-8,52,9c4,7,8,9,8,4s6-3,13,3c8,6,17,8,20,4c4-3,7,0,7,8c0,11,2,11,10-1s10-12,10-1c0,8,3,11,7,8
		c3-4,12-2,20,4c7,6,22,9,33,6s18-1,15,3c-3,5,9,8,27,7c22-1,32,3,31,11c-4,16,9,15,26,0c7-7,12-8,11-3c-5,22,1,25,21,14
		c17-8,20-8,14,1s2,11,28,8c20-2,34-1,32,2s6,12,18,20c19,11,20,11,10-1c-9-11-6-14,15-15c15-1,21,1,15,3c-27,10-11,21,17,13
		c19-5,28-5,25,1c-4,5,1,9,9,9c10,0,13-6,9-17c-3-12,0-10,11,5c10,13,22,19,29,15S2346,3034,2358,3032z M2670,3036c0-3-4-8-10-11
		c-5-3-10-1-10,4c0,6,5,11,10,11C2666,3040,2670,3038,2670,3036z M1815,2941c3-5,2-12-3-15s-9,1-9,9C1803,2952,1806,2954,1815,2941z
		 M4625,2460c3-5,1-10-4-10c-6,0-11,5-11,10c0,6,2,10,4,10C4617,2470,4622,2466,4625,2460z M537,1975c0-8-4-12-9-9s-6,10-3,15
		C534,1994,537,1992,537,1975z M2250,1270c0-5-5-10-11-10c-5,0-7,5-4,10c3,6,8,10,11,10C2248,1280,2250,1276,2250,1270z M2980,1054
		c0-8-19-13-24-6c-3,5,1,9,9,9S2980,1055,2980,1054z M2510,560c0-5-2-10-4-10c-3,0-8,5-11,10c-3,6-1,10,4,10
		C2505,570,2510,566,2510,560z"/>
	<path d="M976,6052c-3-5,1-9,9-9s12,4,9,9c-3,4-7,8-9,8S979,6056,976,6052z"/>
	<path d="M1406,5862c-3-5,1-9,9-9s12,4,9,9c-3,4-7,8-9,8S1409,5866,1406,5862z"/>
	<path d="M1500,5816c0-3,9-10,20-16s20-8,20-6c0,3-9,10-20,16S1500,5818,1500,5816z"/>
	<path d="M6410,5546c0-2,8-10,18-17c15-13,16-12,3,4S6410,5554,6410,5546z"/>
	<path d="M1820,5360c-9-6-10-10-3-10c6,0,15,5,18,10C1843,5372,1839,5372,1820,5360z"/>
	<path d="M5430,5356c0-2,8-10,18-17c15-13,16-12,3,4S5430,5364,5430,5356z"/>
	<path d="M1480,3469c0-5,5-7,10-4c6,3,10,8,10,11c0,2-4,4-10,4C1485,3480,1480,3475,1480,3469z"/>
	<path d="M6470,3021c0-6,4-13,10-16s7,1,4,9C6477,3032,6470,3035,6470,3021z"/>
	<path d="M2950,2956c7-7,13-7,20,0c6,6,3,10-10,10S2944,2962,2950,2956z"/>
	<path d="M1565,2831c-3-5-2-12,3-15s9,1,9,9C1577,2842,1574,2844,1565,2831z"/>
	<path d="M2786,1098c3-5,10-6,15-3c13,9,11,12-6,12C2787,1107,2783,1103,2786,1098z"/>
	<path d="M6103,6635c0-8,4-12,9-9s6,10,3,15C6106,6654,6103,6652,6103,6635z"/>
	<path d="M6998,6283c7-3,16-2,19,1c4,3-2,6-13,5C6993,6289,6990,6286,6998,6283z"/>
	<path d="M3290,6029c0-5,5-7,10-4c6,3,10,8,10,11c0,2-4,4-10,4C3295,6040,3290,6035,3290,6029z"/>
	<path d="M4570,5945c0-7,30-13,34-7c3,4-4,9-15,9C4579,5948,4570,5947,4570,5945z"/>
	<path d="M230,5560c0-5,5-10,10-10c6,0,10,5,10,10c0,6-4,10-10,10C235,5570,230,5566,230,5560z"/>
	<path d="M253,3905c0-8,4-12,9-9s6,10,3,15C256,3924,253,3922,253,3905z"/>
	<path d="M7095,3361c-3-5-2-12,3-15s9,1,9,9C7107,3372,7104,3374,7095,3361z"/>
	<path d="M193,2785c0-8,4-12,9-9s6,10,3,15C196,2804,193,2802,193,2785z"/>
	<path d="M1300,1120c0-5,5-10,11-10c5,0,7,5,4,10c-3,6-8,10-11,10C1302,1130,1300,1126,1300,1120z"/>
</g>
<image style="overflow:visible;" width="180" height="180" xlink:href="apple-touch-icon.png"  transform="matrix(4.0389 0 0 4.0389 -2 0)">
</image>
</svg>
